<svg id="Layer_1" data-name="Layer 1" xmlns="http://www.w3.org/2000/svg" viewBox="0 0 421.21 197.47"><title>fav-icon</title><path d="M0,0H361.68a59.53,59.53,0,0,1,59.53,59.53V197.47a0,0,0,0,1,0,0H59.53A59.53,59.53,0,0,1,0,137.94V0A0,0,0,0,1,0,0Z" fill="#3d98ff"/><path d="M130.56,65.1l.34.35a8.13,8.13,0,0,1,2.19,6.09c0,2.54.08,5.09.08,7.64q0,18.72.07,37.44c0,.67.06,1.31.09,2.07H135c1.92-.07,3.84-.09,5.76-.24a6.4,6.4,0,0,0,6.24-6.67q.15-11.84.29-23.66c0-3.34.29-6.72,0-10.05-.51-6.32-4.88-12.83-12.69-13.88a13.85,13.85,0,0,0-5-.17l-.06.37.56.35h.05v.31h-1.1A19.52,19.52,0,0,0,122,63.5c-.16-.09-.32-.25-.48-.25h-9.9c-.16,0-.31.17-.47.26l-2.2,0-3.78.3c-1.16.17-2.34.26-3.48.53a9.89,9.89,0,0,0-4.54,1.85c-3.88,3.4-6.25,7.52-5.83,12.87,0,.67.1,1.4.17,2.33a14,14,0,0,1,10-3.7c9.25.07,18.51,0,27.77,0h2.11c1-4.3,1.12-8.33-1.53-12l.35-.67h.33Z" transform="translate(-11.19 -8.42)" fill="#36c"/><path d="M231.27,117.65h0a3,3,0,0,0,1,.34c1.91-.06,3.86.45,5.73-.36a11.73,11.73,0,0,0,4.3-1.46c3.52-2.16,5.85-5,5.83-9.39V99.14q0-12.39,0-24.78a3.87,3.87,0,0,0-1.15-.37H236a4.16,4.16,0,0,0-1,.29c-3.34.46-6.47,1.48-8.68,4.2-1.76,2.14-3.22,4.44-3.19,7.39.06,5.34.06,10.68.09,16a2.88,2.88,0,0,0,.26.85,11.66,11.66,0,0,0,1.95.32c4.83,0,9.67,0,14.51.05a13.22,13.22,0,0,1,2.17.33c0,1.18,0,2.35.05,3.53a3.19,3.19,0,0,1-1,2.49c-1.77,1.75-3.78,3-6.43,3-2.23,0-4.46,0-6.68,0h-4c0,.35-.06.48,0,.57a9,9,0,0,0,6.19,4.62Z" transform="translate(-11.19 -8.42)" fill="#fff"/><path d="M298.8,103.16H316a13.17,13.17,0,0,1,2.15.34c0,.5,0,1,0,1.48,0,2.78-1.39,4.75-3.5,6.37-1.63,1.25-3.52,1.14-5.4,1.23h-4.2l-3.68-.18c-.51-.41-1-.53-1.49,0a13.65,13.65,0,0,0,1.38,2.55,9.15,9.15,0,0,0,7.19,3.46,1.83,1.83,0,0,0,2.24,0l.72,0,3-.33c5.73-1,9.11-6.23,9.69-10.92.17-1.33.31-2.67.46-4h26.11a4,4,0,0,0,1-.32c1.11,0,2.23,0,3.34-.08,1.74,0,1.81-.09,1.81-1.77,0-4.52.08-9,0-13.56a12.77,12.77,0,0,0-4.48-9.78,14.82,14.82,0,0,0-7.69-3.28,3.79,3.79,0,0,0-1-.3H335L330.89,74c-.77-.41-1.52-.59-2.2.15v6.14q0,7.7,0,15.41h-4.1c0-.67-.1-1.34-.1-2q0-9.58.06-19.17a5.25,5.25,0,0,0-1.46-.44c-3.76,0-7.53,0-11.29.06a7.49,7.49,0,0,0-1.41.28,13.3,13.3,0,0,0-10.75,7.87,6.9,6.9,0,0,0-.73,2.22c-.19,2-.31,3.95-.33,5.94-.06,4.09,0,8.19,0,12.29C298.59,102.81,298.7,103,298.8,103.16Z" transform="translate(-11.19 -8.42)" fill="#fff"/><path d="M276.41,70.36c1.88-.88,2.77-2.21,2.43-3.65A3.3,3.3,0,0,0,275.19,64c-1.86.23-2.74,1.41-2.62,3.52.1,1.74.61,2.36,2.34,2.83a1,1,0,0,0,1.47,0Z" transform="translate(-11.19 -8.42)" fill="#fff"/><path d="M201.07,70.33c2.67-1.39,3.09-4,.84-5.71a3.43,3.43,0,0,0-3.68-.19c-.88.52-1.92,2.31-1.56,3.11.52,1.15.72,2.74,2.53,2.78A1.38,1.38,0,0,0,201.07,70.33Z" transform="translate(-11.19 -8.42)" fill="#fff"/><path d="M96.64,59.86l.55-.1A2,2,0,0,0,98.81,58a1.82,1.82,0,0,0-1.67-1.87A8.32,8.32,0,0,0,93.88,56a16,16,0,0,0-7.53,3.86c-3.77,3.34-4.9,7.35-4.19,12.1a1.41,1.41,0,0,0,1.34,1.27c1.69.2,2.51-.67,2.43-2.55A9.25,9.25,0,0,1,88,64.12a11.6,11.6,0,0,1,6.67-3.94Z" transform="translate(-11.19 -8.42)" fill="#36c"/><path d="M351,155c2.48-.34,4.21-1.71,5.63-4.08h-1.91c-8,0-16-.05-24,0-2.67,0-5.34.09-8,.35-3.27.31-5.07,1.33-5.43,4H345c.8,0,1.6.08,2.39,0C348.61,155.27,349.81,155.13,351,155Z" transform="translate(-11.19 -8.42)" fill="#fff"/><path d="M94,46a24.79,24.79,0,0,0-21,16.34c-1.21,2.93-1,6-1.34,9-.11,1,.49,1.44,1.38,1.62a1,1,0,0,0,1.34.17.91.91,0,0,0,.17-.17,1.86,1.86,0,0,0,.77-1.57,43.58,43.58,0,0,1,.74-5.47A19.94,19.94,0,0,1,87.19,52a22,22,0,0,1,6-1.87l2.67-.33a10.87,10.87,0,0,0,1.28-.11,1.79,1.79,0,0,0,1.57-1.58,1.61,1.61,0,0,0-1.27-1.77L95.9,46A1.49,1.49,0,0,0,94,46Z" transform="translate(-11.19 -8.42)" fill="#36c"/><path d="M94.4,34.77c-1.23.15-2.46.28-3.68.46a33.79,33.79,0,0,0-19.21,9.39,37.4,37.4,0,0,0-7.35,10.12,29.5,29.5,0,0,0-3.36,13v4.1c0,.92.62,1.3,1.33,1.62s1.25,0,1.79-.52A3.34,3.34,0,0,0,65,70.52a50.77,50.77,0,0,1,1-7.15A30.57,30.57,0,0,1,77,46a36.18,36.18,0,0,1,12.78-6.25,24,24,0,0,1,2.67-.45L94.77,39c.8-.05,1.6-.07,2.39-.17A1.89,1.89,0,0,0,99,37.45a1.77,1.77,0,0,0-.88-2,7.58,7.58,0,0,0-1.85-.67A1.46,1.46,0,0,0,94.4,34.77Z" transform="translate(-11.19 -8.42)" fill="#36c"/><path d="M133.94,134.84c1.05-.3,2.13-.52,3.15-.9a14.07,14.07,0,0,0,7.7-6.75,20,20,0,0,0,2.14-7.4c.11-.9.4-1.91-.27-2.83-3.13,3.62-4.22,4.09-8.9,3.9H137q-11.55-.18-23.11-.33H107.8a10.36,10.36,0,0,0-.07,1.09c0,2.3.06,4.6.08,6.89a7.16,7.16,0,0,0,2.16,4.8,5.17,5.17,0,0,0,4.18,1.51,8.6,8.6,0,0,0,1.75.34q8.22,0,16.47,0A7.68,7.68,0,0,0,133.94,134.84Z" transform="translate(-11.19 -8.42)" fill="#36c"/><path d="M336.12,134.09c-1.79,0-3.57-.06-5.34,0a9.65,9.65,0,0,0-1.77.31,16,16,0,0,0-7.49,3.65,14,14,0,0,0-4.78,11.87c0,.39.14.77.28,1.49,2.47-2.67,5.52-3.34,8.64-3.52s6.2,0,9.31,0h3.34a6.68,6.68,0,0,0,1.41.3q7.54,0,15.1,0a6.07,6.07,0,0,0,1.39-.31c.09-.16.25-.32.24-.48-.06-2.59,0-5.2-.26-7.77-.26-2.26-1.89-4.89-4.88-4.93a40.31,40.31,0,0,1-4-.4h-1.14a5.52,5.52,0,0,0-1.22-.26h-6.24Z" transform="translate(-11.19 -8.42)" fill="#fff"/><path d="M186.22,133.42c.3.45.57.91.89,1.34,1.86,2.5,3.26,5.12,3.13,8.41-.17,4.47-.12,8.94-.24,13.4s-.29,8.68-.43,13c0,1.11,0,2.21,0,3.39,3.34.45,6.61.35,9.55-1.21,2.47-1.33,4.37-3.19,4.42-6.36.1-6.21.36-12.42.41-18.62a10.19,10.19,0,0,0-1.18-4.81,16,16,0,0,0-12.12-8.76c-1.12-.1-2.24-.25-3.34-.28C186.93,132.94,186.58,133.25,186.22,133.42Z" transform="translate(-11.19 -8.42)" fill="#36c"/><path d="M293.94,172.49c1.06.73,2.24.31,3.37.35a21.17,21.17,0,0,1,3,0c3.43.47,6.19-2.56,6.76-5.17a28.54,28.54,0,0,0,.61-5.52c.09-5.16,0-10.31,0-15.46a9.23,9.23,0,0,0-.15-1.66A14.7,14.7,0,0,0,294.3,133.2a2.07,2.07,0,0,0-2.22,0l-2.16.41c.17.3.2.45.29.51a7.34,7.34,0,0,1,3.38,6.52C293.65,151.27,293.81,161.91,293.94,172.49Z" transform="translate(-11.19 -8.42)" fill="#fff"/><path d="M91.69,128.08c0,1.43-.12,2.85-.13,4.28-.06,8.19-.13,16.39-.16,24.59a22,22,0,0,0,.29,3.62,15,15,0,0,0,2.86,6.24c1.9,2.67,4.21,4.79,7.52,5.53a12.23,12.23,0,0,1,2.64.46c1.51.75,2.76-.32,4.58-.06-.74-.78-1.15-1.22-1.57-1.65a7.58,7.58,0,0,1-2.14-4.8c-.19-2.28-.3-4.58-.31-6.88,0-6.64,0-13.28,0-19.93,0-.93,0-1.86,0-2.79a.74.74,0,0,0-.63-.84h-.13l-1.92-.3a8.13,8.13,0,0,1-1.09-.14,16.23,16.23,0,0,1-9.34-7.31l-.43-.59Z" transform="translate(-11.19 -8.42)" fill="#36c"/><path d="M349.92,158.36H317.1v9.47a2.32,2.32,0,0,0,.28.67,6.25,6.25,0,0,0,6.27,3.95l20.47,0a3.69,3.69,0,0,0,1.1-.08,18.48,18.48,0,0,0,6.49-3.34c4-3.43,5.34-7.87,5.18-12.9a4.54,4.54,0,0,0-.58-1.34C354.33,156.63,352.43,158.06,349.92,158.36Z" transform="translate(-11.19 -8.42)" fill="#fff"/><path d="M268.57,117.72a5.65,5.65,0,0,0,1.23.29c3.72,0,7.45,0,11.17,0a7.55,7.55,0,0,0,1.41-.31,12.48,12.48,0,0,0,7.85-4.86,10.27,10.27,0,0,0,2.52-6.26c.1-8.26.09-16.53.13-24.79a5.72,5.72,0,0,0-1.8-4.13,10,10,0,0,0-4.21-2.24l-.38.08c0,.56-.06,1.11-.06,1.67-.07,9-.09,18.08-.24,27.12,0,2.95-1,5.54-4.12,6.68l-1.55.24h-1.14a4.68,4.68,0,0,0-1-.27c-3,0-6.07,0-9.11,0-1.68-.1-2.62-1.23-3.42-2.52a8,8,0,0,1-.83-4.31V83.67c0-.58-.08-1.17-.12-1.75-3.75.35-6.3,2.87-6.35,6.41-.09,6.33,0,12.68,0,19a7.46,7.46,0,0,0,.48,2.88C260.78,114.45,263.8,117.22,268.57,117.72Z" transform="translate(-11.19 -8.42)" fill="#fff"/><path d="M193.59,110.94a4.86,4.86,0,0,1-3.71-4,12.76,12.76,0,0,1-.28-3c0-5.59,0-11.18,0-16.77,0-1.8,0-3.6-.06-5.4l-.37,0a7,7,0,0,0-6.05,7c.06,6,0,12,0,18a7.8,7.8,0,0,0,.29,2.92c1.83,4.4,4.81,7.47,9.83,8a5.13,5.13,0,0,0,1.23.29c3.72,0,7.45,0,11.17,0a6.26,6.26,0,0,0,1.41-.32,11.5,11.5,0,0,0,5.34-2.41c3-2.23,4.93-5.18,5-8.91.17-8.25.11-16.5.14-24.75a5.54,5.54,0,0,0-1.66-3.84,9.9,9.9,0,0,0-4.34-2.37l-.38.06c-.09,4-.22,7.92-.25,11.88-.05,5.7,0,11.4-.07,17.1,0,2.94-1.06,5.38-4.1,6.48Z" transform="translate(-11.19 -8.42)" fill="#fff"/><path d="M108.89,134.71c-.41-.54-.81-1.1-1.24-1.62a10.29,10.29,0,0,1-2.42-7.61c.09-1.11.18-2.23.2-3.34q.27-19.94.53-39.86V80.44a4.82,4.82,0,0,0-.51-.38c-4.67-1.9-8.86-.89-12.78,1.91A3.61,3.61,0,0,0,91,85.08c.22,12.24.35,24.47.54,36.72a10,10,0,0,0,1.1,4.8c2.58,4.75,6.42,7.61,11.84,8.24A5.75,5.75,0,0,0,108.89,134.71Z" transform="translate(-11.19 -8.42)" fill="#36c"/><path d="M274.91,172.92a8.53,8.53,0,0,0,4.28.18v-.38l-.6-.22a7.42,7.42,0,0,1-4.09-6.95q-.18-8.72-.34-17.44a2.29,2.29,0,0,1,.22-.67l.5-.25,4.84-.07h10a4.34,4.34,0,0,0,1.18-.35c-.12-2.77-.08-5.57-.44-8.32a5.14,5.14,0,0,0-4.74-4.72,58,58,0,0,0-5.89-.34c-1.85,0-3.69,0-5.52,0V122.71l-1.31-.22a13.08,13.08,0,0,0-6.34,0,8.28,8.28,0,0,0-4.26,1.53,5.71,5.71,0,0,0-2.12,4.85c0,9.87,0,19.75,0,29.61a12.14,12.14,0,0,0,.77,5.23,12.7,12.7,0,0,0,3.34,5C267.5,171.15,270.87,172.85,274.91,172.92Z" transform="translate(-11.19 -8.42)" fill="#fff"/><path d="M156.67,110.56v.93q.17,24.38.33,48.78a9.22,9.22,0,0,0,.18,2.77,15.15,15.15,0,0,0,6.24,7.75,12.63,12.63,0,0,0,6.68,2.09,3,3,0,0,0,3,0l1.84-.43c-.44-.32-.67-.51-.94-.67a7.62,7.62,0,0,1-4-6.47c-.08-2.1,0-4.2,0-6.29,0-4-.12-7.91-.18-11.86,4.78,0,9.56,0,14.34,0a11.78,11.78,0,0,0,2-.32,10.59,10.59,0,0,0,.77-4.85,9.15,9.15,0,0,0-6.35-9l-2.67.32h-5.2l-2.09-.38c0-.62-.12-1.23-.12-1.85V66c0-.67-.05-1.3-.08-2-2.89,0-5.56-.15-8.21,0-3.56.26-5.19,2-5.91,5.64,0,.1-.16.17-.25.26v.59a10.35,10.35,0,0,1,.31,1.75c.06,4,.08,7.91.12,11.87q.09,12.26.2,24.5A1.37,1.37,0,0,0,156.67,110.56Z" transform="translate(-11.19 -8.42)" fill="#36c"/><path d="M233.26,133.87c.32.25.55.42.77.61a8.09,8.09,0,0,1,2.89,5.76c.18,4,.22,7.93.22,11.9,0,4.53-.07,9.06-.18,13.58-.05,2.09-.27,4.17-.41,6.26-.05.74.23,1.16,1.06,1.16,2.17,0,4.35.12,6.51,0a6.73,6.73,0,0,0,6.5-5.09,50.3,50.3,0,0,0,.8-6.23c.14-2,0-4.1.14-6.13a29.58,29.58,0,0,0-.55-10,16.57,16.57,0,0,0-4.57-8.13,15.84,15.84,0,0,0-9.84-4.2A4.62,4.62,0,0,0,233.26,133.87Z" transform="translate(-11.19 -8.42)" fill="#fff"/><path d="M230.65,172.39c-.36-.33-.67-.67-1.06-1a7.1,7.1,0,0,1-2.48-5.92c.14-5.53.09-11.06.15-16.59.05-4.72.16-9.44.2-14.16,0-1.6-.11-1.66-1.67-1.77a30.89,30.89,0,0,0-8.29.92,6,6,0,0,0-4.46,5.45c0,3.34-.13,6.71-.07,10.06.07,4.1.24,8.2.45,12.29a7.21,7.21,0,0,0,.72,2.42,16.39,16.39,0,0,0,6.19,6.68C223.5,172.8,227,172.9,230.65,172.39Z" transform="translate(-11.19 -8.42)" fill="#fff"/><path d="M343.9,67.35A3.34,3.34,0,0,0,340.62,64a3.6,3.6,0,0,0-3.33,3.29,4,4,0,0,0,3.18,3.34A3.7,3.7,0,0,0,343.9,67.35Z" transform="translate(-11.19 -8.42)" fill="#fff"/><path d="M350.4,96.76H334.79V82a1.71,1.71,0,0,1,.48-.22c2.93-.08,5.85-.21,8.78-.18a8.53,8.53,0,0,1,3.26.67A5,5,0,0,1,350.38,87C350.44,90.19,350.4,93.36,350.4,96.76Z" transform="translate(-11.19 -8.42)" fill="#3d98ff"/><path d="M317.44,81.41v15.1c-1.34.39-10.1.49-12.74.14a12.55,12.55,0,0,1-.13-1.4v-8c0-3.78,2-5.79,5.74-5.8C312.62,81.4,314.92,81.41,317.44,81.41Z" transform="translate(-11.19 -8.42)" fill="#3d98ff"/><path d="M241.38,81.05V96.81H228.55c-.08-.44-.13-.88-.17-1.33V87.65a6.25,6.25,0,0,1,6.2-6.57C236.78,81,239,81.05,241.38,81.05Z" transform="translate(-11.19 -8.42)" fill="#3d98ff"/><path d="M119.3,73.61c-1.56,0-3.12,0-4.67,0A1.91,1.91,0,0,1,112.79,72a1.79,1.79,0,0,1,.74-2,2.52,2.52,0,0,1,1.37-.48c2.93,0,5.86-.06,8.78,0a2,2,0,0,1,2.14,2.08c0,1.22-.78,1.93-2.23,2s-2.86,0-4.29,0Z" transform="translate(-11.19 -8.42)" fill="#3d98ff"/></svg>