<?xml version="1.0" encoding="utf-8"?>
<!-- Generator: Adobe Illustrator 23.0.0, SVG Export Plug-In . SVG Version: 6.00 Build 0)  -->
<svg version="1.1" id="Layer_1" xmlns="http://www.w3.org/2000/svg" xmlns:xlink="http://www.w3.org/1999/xlink" x="0px" y="0px"
	 viewBox="0 0 443.6 208" style="enable-background:new 0 0 443.6 208;" xml:space="preserve">
<style type="text/css">
	.st0{fill:#3366CC;}
	.st1{fill:#37B9FC;}
	.st2{fill:#FFFFFF;}
	.st3{fill:#3D98FF;}
</style>
<title>phone one logo</title>
<path class="st0" d="M104.5,45.9l0.5,0.5c2.5,2.5,3.3,5.7,3.3,9.1c0,3.8,0.1,7.6,0.1,11.4c0,18.7,0.1,37.4,0.1,56.1
	c0,1,0.1,2,0.1,3.1c1.1,0,1.8,0,2.6,0c2.9-0.1,5.8-0.1,8.6-0.4c5.7-0.5,9.3-4.4,9.4-10c0.1-11.8,0.3-23.6,0.4-35.4
	c0-5,0.4-10.1,0-15c-0.8-9.5-7.3-19.2-19-20.8c-2.5-0.8-5-0.4-7.5-0.3l-0.1,0.5l0.8,0.5h0.1c0,0.1,0,0.3,0,0.5h-1.7
	c-3.3-1.6-6.9-2-10.6-2.3c-0.2-0.1-0.5-0.4-0.7-0.4c-4.9,0-9.9,0-14.8,0c-0.2,0-0.5,0.3-0.7,0.4l-3.3,0.1L66.5,44
	c-1.7,0.3-3.5,0.4-5.2,0.8c-2.4,0.5-4.9,1.1-6.8,2.8c-5.8,5.1-9.4,11.3-8.7,19.3c0.1,1,0.2,2.1,0.3,3.5c4.1-3.8,9.5-5.8,15-5.5
	c13.9,0.1,27.7,0,41.6,0h3.2c1.5-6.4,1.7-12.5-2.3-18l0.5-1h0.3L104.5,45.9L104.5,45.9z"/>
<path class="st1" d="M255.4,124.6L255.4,124.6c0.5,0.3,1,0.4,1.5,0.5c2.9-0.1,5.8,0.7,8.6-0.5c2.3-0.3,4.5-1,6.5-2.2
	c5.3-3.2,8.8-7.5,8.7-14.1c0-3.8,0-7.6,0-11.4c0-12.4,0-24.7-0.1-37.1c-0.5-0.3-1.1-0.5-1.7-0.6c-5.4,0-10.9,0-16.3,0
	c-0.5,0.1-1.1,0.2-1.5,0.4c-5,0.7-9.7,2.2-13,6.3c-2.6,3.2-4.8,6.6-4.8,11.1c0.1,8,0.1,16,0.1,24c0.1,0.4,0.2,0.9,0.4,1.3
	c1,0.2,1.9,0.4,2.9,0.5c7.2,0,14.5,0,21.7,0.1c1.1,0.1,2.2,0.3,3.2,0.5c0,1.8,0,3.5,0.1,5.3c0.1,1.4-0.5,2.8-1.5,3.7
	c-2.7,2.6-5.7,4.6-9.6,4.5c-3.3-0.1-6.7,0-10,0h-6c0,0.5-0.1,0.7,0,0.9c1.9,3.6,5.3,6.1,9.3,6.9L255.4,124.6z"/>
<path class="st1" d="M356.5,102.9c8.6,0,17.2,0,25.8,0c1.1,0.1,2.2,0.3,3.2,0.5c0,0.7,0,1.5,0,2.2c0.1,4.2-2.1,7.1-5.2,9.5
	c-2.4,1.9-5.3,1.7-8.1,1.8h-6.3l-5.5-0.3c-0.8-0.6-1.5-0.8-2.2,0.1c0.6,1.3,1.3,2.6,2.1,3.8c2.6,3.3,6.6,5.2,10.8,5.2
	c1,0.8,2.4,0.8,3.4,0l1.1-0.1l4.5-0.5c8.6-1.5,13.6-9.3,14.5-16.4c0.3-2,0.5-4,0.7-6.1h2c12.4,0,24.7,0,37.1,0
	c0.5-0.1,1-0.2,1.5-0.5c1.7,0,3.3-0.1,5-0.1c2.6-0.1,2.7-0.1,2.7-2.6c0-6.8,0.1-13.5,0-20.3c0-5.6-2.4-11-6.7-14.7
	c-3.3-2.7-7.3-4.4-11.5-4.9c-0.5-0.2-1-0.4-1.5-0.5c-4.4,0-8.7,0-13.1,0l-6.1-0.1c-1.1-0.6-2.3-0.9-3.3,0.2c0,3.1,0,6.1,0,9.2
	c0,7.7,0,15.4-0.1,23.1h-6.1c0-1-0.1-2-0.1-3c0-9.6,0-19.1,0.1-28.7c-0.7-0.3-1.4-0.5-2.2-0.6c-5.6,0-11.3,0-16.9,0.1
	c-0.7,0.1-1.4,0.2-2.1,0.4c-7.5,1-12.8,5-16.1,11.8c-0.6,1-0.9,2.2-1.1,3.3c-0.3,3-0.5,5.9-0.5,8.9c-0.1,6.1,0,12.3,0,18.4
	C356.2,102.4,356.4,102.6,356.5,102.9z"/>
<path class="st1" d="M323,53.8c2.8-1.3,4.1-3.3,3.6-5.5c-0.4-2.6-2.9-4.4-5.5-4.1c-2.8,0.3-4.1,2.1-3.9,5.3c0.1,2.6,0.9,3.5,3.5,4.2
	C321.3,54.4,322.3,54.4,323,53.8C322.9,53.8,323,53.8,323,53.8z"/>
<path class="st1" d="M210.1,53.8c4-2.1,4.6-6.1,1.3-8.6c-1.6-1.2-3.8-1.3-5.5-0.3c-1.3,0.8-2.9,3.5-2.3,4.7c0.8,1.7,1.1,4.1,3.8,4.2
	C208.1,54.5,209.3,54.5,210.1,53.8z"/>
<path class="st0" d="M53.7,38.1c0.3,0,0.6-0.1,0.8-0.1c1.3-0.3,2.3-1.4,2.4-2.7c0-1.4-1-2.7-2.5-2.8c-1.6-0.4-3.3-0.5-4.9-0.2
	c-4.2,0.9-8.1,2.9-11.3,5.8c-5.7,5-7.3,11-6.3,18.1c0.1,1,1,1.9,2,1.9c2.5,0.3,3.8-1,3.7-3.8c-0.2-3.5,0.9-7,3.1-9.8
	c2.6-3.1,6.1-5.1,10-5.9L53.7,38.1z"/>
<path class="st1" d="M434.7,180.6c3.7-0.5,6.3-2.6,8.4-6.1h-2.9c-12,0-24-0.1-36,0c-4,0-8,0.1-12,0.5c-4.9,0.5-7.6,2-8.1,6h41.6
	c1.2,0,2.4,0.1,3.6,0C431.1,181,432.9,180.8,434.7,180.6z"/>
<path class="st0" d="M49.8,17.2c-8.1,0.9-15.8,4.4-21.8,9.9c-4.4,4.1-7.3,9.1-9.5,14.6c-1.8,4.4-1.5,9-2,13.5
	c-0.2,1.5,0.7,2.2,2.1,2.4c0.5,0.6,1.4,0.7,2,0.3c0.1-0.1,0.2-0.2,0.3-0.3c0.8-0.5,1.2-1.4,1.2-2.4c0.2-2.8,0.6-5.5,1.1-8.2
	c2-9.1,8.1-16.8,16.6-20.8c2.9-1.4,5.9-2.3,9.1-2.8l4-0.5c0.6,0,1.3-0.1,1.9-0.2c1.2-0.1,2.2-1.1,2.4-2.4c0.2-1.2-0.7-2.4-1.9-2.6
	l-2.4-0.6C51.8,16.6,50.6,16.6,49.8,17.2z"/>
<path class="st0" d="M50.3,0.5c-1.8,0.2-3.7,0.4-5.5,0.7C34,2.6,23.9,7.6,16,15.2c-4.5,4.4-8.2,9.5-11,15.2c-3.2,6-4.9,12.7-5,19.5
	c0,2,0,4.1,0,6.1c0,1.4,0.9,1.9,2,2.4s1.9,0,2.7-0.8c1-0.9,1.6-2.3,1.6-3.7c0.2-3.6,0.7-7.2,1.4-10.7c2.3-10.3,8.2-19.5,16.5-26.1
	c5.7-4.4,12.2-7.5,19.1-9.4c1.3-0.3,2.7-0.5,4-0.7l3.5-0.5c1.2-0.1,2.4-0.1,3.6-0.3c1.2,0,2.3-0.8,2.7-2c0.3-1.2-0.2-2.4-1.3-3
	c-0.9-0.4-1.8-0.8-2.8-1C52.3-0.1,51.2-0.2,50.3,0.5z"/>
<path class="st0" d="M109.6,150.4c1.6-0.4,3.2-0.8,4.7-1.3c5-1.8,9.1-5.4,11.5-10.1c1.8-3.5,2.9-7.2,3.2-11.1
	c0.2-1.3,0.6-2.9-0.4-4.2c-4.7,5.4-6.3,6.1-13.3,5.8c-0.4,0-0.7,0-1.1,0c-11.5-0.2-23.1-0.3-34.6-0.5c-3,0-6.1,0-9.2,0
	c-0.1,0.7-0.1,1.2-0.1,1.6c0,3.4,0.1,6.9,0.1,10.3c0,2.9,1.4,5.2,3.3,7.2c1.6,1.7,3.9,2.5,6.3,2.3c0.9,0.3,1.7,0.4,2.6,0.5
	c8.2,0,16.4,0,24.7,0C108,150.8,108.8,150.6,109.6,150.4z"/>
<path class="st1" d="M412.4,149.3c-2.7,0-5.4-0.1-8,0c-0.9,0.1-1.8,0.2-2.6,0.5c-4.1,1-8,2.5-11.2,5.5c-5.1,4.8-7.8,10.7-7.2,17.8
	c0,0.6,0.2,1.1,0.4,2.2c3.7-4,8.3-5,12.9-5.3s9.3,0,14,0.1h5c0.7,0.2,1.4,0.4,2.1,0.4c7.5,0.1,15.1,0.1,22.6,0
	c0.7-0.1,1.4-0.2,2.1-0.5c0.1-0.2,0.4-0.5,0.4-0.7c-0.1-3.9,0-7.8-0.4-11.6c-0.4-3.4-2.8-7.3-7.3-7.4c-2,0-4-0.4-6-0.6h-0.6h-1.1
	c-0.6-0.2-1.2-0.3-1.8-0.4c-3.1,0-6.2,0-9.4,0L412.4,149.3z"/>
<path class="st0" d="M187.9,148.3c0.4,0.7,0.9,1.4,1.3,2c2.8,3.8,4.9,7.7,4.7,12.6c-0.3,6.7-0.2,13.4-0.4,20.1
	c-0.2,6.5-0.4,13-0.6,19.5c0,1.7,0,3.3,0,5.1c5,0.7,9.9,0.5,14.3-1.8c3.7-2,6.5-4.8,6.6-9.5c0.1-9.3,0.5-18.6,0.6-27.9
	c0-2.5-0.6-5-1.8-7.2c-3.5-7.1-10.3-12-18.1-13.1c-1.7-0.2-3.4-0.4-5-0.4C188.9,147.5,188.4,148,187.9,148.3z"/>
<path class="st1" d="M349.2,206.8c1.6,1.1,3.4,0.5,5,0.5c1.5-0.1,3-0.1,4.5,0c5.1,0.7,9.3-3.8,10.1-7.7c0.6-2.7,0.9-5.5,0.9-8.3
	c0.1-7.7,0.1-15.4,0.1-23.2c0-0.8-0.1-1.7-0.2-2.5c-1.9-9.7-10-16.9-19.9-17.7c-1-0.6-2.3-0.6-3.3,0l-3.2,0.6
	c0.3,0.5,0.3,0.7,0.4,0.8c3.3,2.1,5.2,5.8,5.1,9.8C348.8,175,349,190.9,349.2,206.8z"/>
<path class="st0" d="M46.3,140.3c-0.1,2.1-0.2,4.3-0.2,6.4c-0.1,12.3-0.2,24.5-0.2,36.8c0,1.8,0.1,3.6,0.4,5.4
	c0.7,3.4,2.1,6.6,4.3,9.3c2.9,4,6.3,7.2,11.3,8.3c1.3,0.3,2.8,0.1,3.9,0.7c2.3,1.1,4.1-0.5,6.9-0.1c-1.1-1.2-1.7-1.8-2.4-2.5
	c-1.9-1.9-3-4.5-3.2-7.2c-0.3-3.4-0.4-6.9-0.5-10.3c-0.1-10,0-19.9,0-29.9c0-1.4-0.1-2.8,0-4.2c0.1-0.6-0.3-1.2-0.9-1.3
	c-0.1,0-0.1,0-0.2,0l-2.9-0.5c-0.5,0-1.1-0.1-1.6-0.2c-6.1-1.8-10.6-5.7-14-10.9l-0.6-0.9L46.3,140.3z"/>
<path class="st1" d="M433.1,185.6h-13.5h-35.6c0,4.9,0,9.5,0,14.2c0.1,0.4,0.2,0.7,0.4,1c1.8,4.1,5,5.9,9.4,5.9l30.7,0
	c0.6,0,1.1,0,1.6-0.1c3.5-1,6.8-2.7,9.7-5c6-5.1,8-11.8,7.8-19.3c-0.2-0.7-0.5-1.4-0.9-2C439.7,183,436.8,185.2,433.1,185.6z"/>
<path class="st1" d="M311.2,124.7c0.6,0.2,1.2,0.4,1.8,0.4c5.6,0.1,11.2,0.1,16.7,0c0.7-0.1,1.4-0.2,2.1-0.5
	c4.9-0.8,8.7-3.5,11.8-7.3c2.3-2.6,3.6-5.9,3.8-9.4c0.1-12.4,0.1-24.8,0.2-37.1c0-2.3-1-4.6-2.7-6.2c-1.8-1.8-4-2.5-6.3-3.4
	l-0.6,0.1c0,0.8-0.1,1.7-0.1,2.5c-0.1,13.5-0.1,27.1-0.4,40.6c-0.1,4.4-1.5,8.3-6.2,10l-2.3,0.4h-1.7c-0.5-0.2-1-0.3-1.6-0.4
	c-4.5,0-9.1,0-13.6,0c-2.5-0.1-3.9-1.8-5.1-3.8s-1.2-4.2-1.3-6.5c0-10.2,0-20.5,0-30.7c0-0.9-0.1-1.8-0.2-2.6
	c-5.6,0.5-9.4,4.3-9.5,9.6c-0.1,9.5-0.1,19,0,28.4c0,1.5,0.2,2.9,0.7,4.3C299.6,119.8,304.1,124,311.2,124.7z"/>
<path class="st1" d="M198.9,114.6c-3.2-0.7-4.8-3-5.5-5.9c-0.3-1.5-0.5-2.9-0.4-4.4c-0.1-8.4,0-16.8-0.1-25.1c0-2.7,0-5.4-0.1-8.1
	l-0.5-0.1c-4.8,0.8-9.1,4.5-9.1,10.5c0.1,9,0,18,0.1,27c-0.1,1.5,0,3,0.4,4.4c2.7,6.6,7.2,11.2,14.7,11.9c0.6,0.2,1.2,0.4,1.8,0.4
	c5.6,0.1,11.2,0.1,16.7,0c0.7-0.1,1.4-0.2,2.1-0.5c2.9-0.5,5.7-1.7,8-3.6c4.4-3.4,7.4-7.8,7.5-13.4c0.3-12.4,0.2-24.7,0.2-37.1
	c0-2.2-0.9-4.2-2.5-5.8c-1.8-1.9-4.1-2.7-6.5-3.5l-0.6,0.1c-0.1,5.9-0.3,11.9-0.4,17.8c-0.1,8.5,0,17.1-0.1,25.6
	c-0.1,4.4-1.6,8.1-6.1,9.7H198.9z"/>
<path class="st0" d="M72.1,150.2c-0.6-0.8-1.2-1.6-1.9-2.4c-2.7-3.2-4-7.3-3.6-11.4c0.1-1.7,0.3-3.3,0.3-5
	c0.3-19.9,0.5-39.8,0.8-59.7c0-1,0-2,0-2.8c-0.2-0.2-0.5-0.4-0.8-0.6c-7-2.9-13.3-1.3-19.1,2.9c-1.6,1-2.6,2.8-2.5,4.7
	c0.3,18.3,0.5,36.6,0.8,55c-0.1,2.5,0.5,5,1.7,7.2c3.9,7.1,9.6,11.4,17.7,12.3C67.6,151.2,69.9,151.1,72.1,150.2z"/>
<path class="st1" d="M320.7,207.4c2.1,0.9,4.3,0.5,6.4,0.3v-0.6l-0.9-0.3c-4.2-2.2-6-5.8-6.1-10.4c-0.2-8.7-0.4-17.4-0.5-26.1
	c0.1-0.3,0.2-0.7,0.3-1l0.7-0.4l7.3-0.1c5,0,10,0,15,0c0.6-0.1,1.2-0.3,1.8-0.5c-0.2-4.1-0.1-8.3-0.7-12.5c-0.3-3.8-3.3-6.8-7.1-7.1
	c-2.9-0.3-5.9-0.5-8.8-0.5c-2.8-0.1-5.5,0-8.3,0v-16l-2-0.3c-3.1-0.8-6.4-0.8-9.5,0c-2.3,0.3-4.5,0.7-6.4,2.3
	c-2.2,1.8-3.4,4.5-3.2,7.3c0.1,14.8,0,29.6,0,44.4c0,2.7,0,5.3,1.2,7.8c1.3,2.8,2.5,5.5,5,7.5C309.6,204.8,314.7,207.3,320.7,207.4z
	"/>
<path class="st0" d="M143.6,114c0,0.5,0,0.9,0,1.4c0.2,24.3,0.3,48.7,0.5,73.1c-0.1,1.4,0,2.8,0.3,4.1c1.7,4.8,5,8.9,9.4,11.6
	c3,2,6.4,3,10,3.1c1.4,0.8,3.1,0.8,4.5,0l2.8-0.6c-0.7-0.5-1-0.8-1.4-1c-3.6-2.2-5.8-5.4-5.9-9.7c-0.1-3.1,0.1-6.3,0-9.4
	c-0.1-5.9-0.2-11.8-0.3-17.8c7.2,0,14.3,0,21.5-0.1c1-0.1,2-0.2,2.9-0.5c1.2-2.3,1.1-4.8,1.1-7.3c0.2-6.1-3.7-11.6-9.5-13.4l-4,0.5
	h-7.8l-3.1-0.6c-0.1-0.9-0.2-1.9-0.2-2.8c0-19.7,0-39.4,0-59.2V47.3c0-1-0.1-2-0.1-2.9c-4.3,0-8.3-0.2-12.3,0
	c-5.3,0.4-7.8,2.9-8.9,8.5c0,0.1-0.2,0.3-0.4,0.4v0.9c0.2,0.9,0.4,1.7,0.5,2.6c0.1,5.9,0.1,11.9,0.2,17.8
	c0.1,12.2,0.2,24.5,0.3,36.7C142.9,112,142.9,113.2,143.6,114z"/>
<path class="st1" d="M258.3,148.9c0.5,0.4,0.8,0.6,1.1,0.9c2.6,2.1,4.1,5.3,4.3,8.6c0.3,5.9,0.3,11.9,0.3,17.8
	c0,6.8-0.1,13.6-0.3,20.3c-0.1,3.1-0.4,6.3-0.6,9.4c-0.1,1.1,0.4,1.7,1.6,1.7c3.3,0,6.5,0.2,9.8,0c5.1-0.2,8.9-3.6,9.7-7.6
	c0.6-3.1,1-6.2,1.2-9.3c0.2-3-0.1-6.1,0.2-9.2c0.6-5,0.3-10-0.8-14.9c-1.1-4.6-3.4-8.9-6.8-12.2c-4-3.7-9.3-6-14.8-6.3
	C261.8,148.1,260,147.8,258.3,148.9z"/>
<path class="st1" d="M254.4,206.6c-0.5-0.5-1-1-1.6-1.5c-2.6-2.2-4-5.5-3.7-8.9c0.2-8.3,0.1-16.6,0.2-24.9
	c0.1-7.1,0.2-14.1,0.3-21.2c0-2.4-0.2-2.5-2.5-2.6c-4.2-0.1-8.4,0.3-12.4,1.4c-3.8,1-6.5,4.3-6.7,8.2c0,5-0.2,10-0.1,15.1
	c0.1,6.1,0.4,12.3,0.7,18.4c0.1,1.3,0.5,2.5,1.1,3.6c2,4.3,5.3,7.4,9.3,10C243.7,207.2,248.9,207.4,254.4,206.6z"/>
<path class="st1" d="M424.1,49.3c0-2.7-2.2-5-4.9-5c-2.6,0.2-4.8,2.3-5,4.9c0,2.1,2.6,4.9,4.8,5C421.3,54.4,424,51.7,424.1,49.3z"/>
<path class="st2" d="M433.8,93.3h-23.4V71.3c0.2-0.1,0.5-0.3,0.7-0.3c4.4-0.1,8.8-0.3,13.1-0.3c1.7,0,3.3,0.4,4.9,1
	c2.9,1.2,4.7,4,4.6,7.1C433.9,83.5,433.8,88.3,433.8,93.3z"/>
<path class="st2" d="M384.4,70.3V93c-2,0.6-15.1,0.7-19.1,0.2c-0.1-0.7-0.2-1.4-0.2-2.1c0-4,0-8,0-12c0-5.7,3-8.7,8.6-8.7
	C377.2,70.3,380.6,70.3,384.4,70.3z"/>
<path class="st2" d="M270.5,69.8v23.6h-19.2c-0.1-0.7-0.2-1.3-0.3-2c0-3.9,0-7.8,0-11.7c0.1-5.6,3.7-9.5,9.3-9.8
	C263.6,69.7,267,69.8,270.5,69.8z"/>
<path class="st2" d="M87.6,58.7c-2.3,0-4.7,0.1-7,0c-1.4,0-2.5-1-2.8-2.4c-0.3-1.1,0.1-2.4,1.1-3c0.6-0.4,1.3-0.7,2.1-0.7
	c4.4-0.1,8.8-0.1,13.1,0c2.1,0,3.2,1.3,3.2,3.1s-1.2,2.9-3.3,3S89.8,58.7,87.6,58.7L87.6,58.7z"/>
<path class="st3" d="M443.6,476.7H59.5C26.7,476.7,0,450.1,0,417.2V268.8h384.1c32.9,0,59.5,26.7,59.5,59.5V476.7z"/>
<path class="st0" d="M135.7,335.4l0.3,0.3c1.6,1.6,2.1,3.6,2.1,5.9c0,2.5,0.1,4.9,0.1,7.4c0,12,0,24.1,0.1,36.1c0,0.6,0.1,1.3,0.1,2
	c0.7,0,1.2,0,1.6,0c1.9-0.1,3.7-0.1,5.6-0.2c3.7-0.3,6-2.8,6-6.4c0.1-7.6,0.2-15.2,0.3-22.8c0-3.2,0.3-6.5,0-9.7
	c-0.5-6.1-4.7-12.4-12.2-13.4c-1.6-0.5-3.2-0.2-4.8-0.2l-0.1,0.4l0.5,0.3h0c0,0.1,0,0.2,0,0.3h-1.1c-2.2-1-4.5-1.3-6.8-1.5
	c-0.2-0.1-0.3-0.2-0.5-0.2c-3.2,0-6.4,0-9.5,0c-0.2,0-0.3,0.2-0.5,0.2l-2.1,0l-3.6,0.3c-1.1,0.2-2.3,0.3-3.4,0.5
	c-1.6,0.4-3.2,0.7-4.4,1.8c-3.7,3.3-6,7.2-5.6,12.4c0.1,0.6,0.1,1.3,0.2,2.2c2.6-2.4,6.1-3.7,9.7-3.6c8.9,0.1,17.9,0,26.8,0h2
	c1-4.1,1.1-8-1.5-11.6l0.3-0.6h0.2L135.7,335.4L135.7,335.4z"/>
<path class="st2" d="M232.8,386L232.8,386c0.3,0.2,0.6,0.3,1,0.3c1.8-0.1,3.7,0.4,5.5-0.3c1.5-0.2,2.9-0.7,4.2-1.4
	c3.4-2.1,5.6-4.9,5.6-9.1c0-2.5,0-4.9,0-7.4c0-8,0-15.9,0-23.9c-0.3-0.2-0.7-0.3-1.1-0.4c-3.5,0-7,0-10.5,0c-0.3,0.1-0.7,0.1-1,0.3
	c-3.2,0.4-6.2,1.4-8.4,4c-1.7,2.1-3.1,4.3-3.1,7.1c0.1,5.2,0.1,10.3,0.1,15.5c0,0.3,0.1,0.6,0.3,0.8c0.6,0.2,1.2,0.3,1.9,0.3
	c4.7,0,9.3,0,14,0c0.7,0.1,1.4,0.2,2.1,0.3c0,1.1,0,2.3,0.1,3.4c0,0.9-0.3,1.8-1,2.4c-1.7,1.7-3.7,2.9-6.2,2.9c-2.2-0.1-4.3,0-6.4,0
	h-3.9c0,0.3-0.1,0.5,0,0.6c1.2,2.3,3.4,3.9,6,4.5L232.8,386z"/>
<path class="st2" d="M297.9,372.1c5.5,0,11.1,0,16.6,0c0.7,0.1,1.4,0.2,2.1,0.3c0,0.5,0,1,0,1.4c0,2.7-1.3,4.6-3.4,6.1
	c-1.6,1.2-3.4,1.1-5.2,1.2h-4l-3.5-0.2c-0.5-0.4-1-0.5-1.4,0c0.4,0.9,0.8,1.7,1.3,2.5c1.7,2.1,4.2,3.3,6.9,3.3
	c0.6,0.5,1.5,0.5,2.2,0l0.7,0l2.9-0.3c5.5-1,8.8-6,9.3-10.5c0.2-1.3,0.3-2.6,0.4-3.9h1.3c8,0,15.9,0,23.9,0c0.3-0.1,0.7-0.2,1-0.3
	c1.1,0,2.2,0,3.2-0.1c1.7,0,1.7-0.1,1.8-1.7c0-4.4,0.1-8.7,0-13.1c0-3.6-1.6-7.1-4.3-9.4c-2.1-1.7-4.7-2.8-7.4-3.2
	c-0.3-0.1-0.6-0.2-1-0.3c-2.8,0-5.6,0-8.4,0l-3.9-0.1c-0.7-0.4-1.5-0.6-2.1,0.1c0,2,0,4,0,5.9c0,5,0,9.9,0,14.9h-4
	c0-0.6-0.1-1.3-0.1-2c0-6.2,0-12.3,0.1-18.5c-0.4-0.2-0.9-0.3-1.4-0.4c-3.6,0-7.3,0-10.9,0.1c-0.5,0.1-0.9,0.1-1.4,0.3
	c-4.8,0.6-8.2,3.3-10.4,7.6c-0.4,0.7-0.6,1.4-0.7,2.1c-0.2,1.9-0.3,3.8-0.3,5.7c-0.1,4,0,7.9,0,11.9
	C297.7,371.7,297.8,371.9,297.9,372.1z"/>
<path class="st2" d="M276.3,340.4c1.8-0.8,2.7-2.1,2.3-3.5c-0.3-1.7-1.8-2.8-3.5-2.6c-1.8,0.2-2.6,1.4-2.5,3.4
	c0.1,1.7,0.6,2.3,2.3,2.7C275.2,340.8,275.9,340.8,276.3,340.4C276.3,340.5,276.3,340.4,276.3,340.4z"/>
<path class="st2" d="M203.6,340.4c2.6-1.3,3-3.9,0.8-5.5c-1-0.7-2.4-0.8-3.5-0.2c-0.8,0.5-1.9,2.2-1.5,3c0.5,1.1,0.7,2.6,2.4,2.7
	C202.3,340.9,203.1,340.9,203.6,340.4z"/>
<path class="st2" d="M102.9,330.3c0.2,0,0.4-0.1,0.5-0.1c0.9-0.2,1.5-0.9,1.6-1.7c0-0.9-0.7-1.7-1.6-1.8c-1-0.2-2.1-0.3-3.1-0.1
	c-2.7,0.6-5.2,1.9-7.3,3.7c-3.6,3.2-4.7,7.1-4,11.7c0.1,0.7,0.6,1.2,1.3,1.2c1.6,0.2,2.4-0.6,2.3-2.5c-0.2-2.3,0.6-4.5,2-6.3
	c1.6-2,3.9-3.3,6.4-3.8L102.9,330.3z"/>
<path class="st2" d="M348.2,422.1c2.4-0.3,4.1-1.7,5.4-3.9h-1.8c-7.7,0-15.5-0.1-23.2,0c-2.6,0-5.2,0.1-7.7,0.3
	c-3.2,0.3-4.9,1.3-5.2,3.9h26.8c0.8,0,1.5,0.1,2.3,0C345.9,422.3,347.1,422.2,348.2,422.1z"/>
<path class="st2" d="M100.4,316.9c-5.2,0.6-10.2,2.8-14.1,6.4c-2.9,2.6-4.7,5.8-6.1,9.4c-1.2,2.8-1,5.8-1.3,8.7
	c-0.1,0.9,0.5,1.4,1.3,1.6c0.3,0.4,0.9,0.5,1.3,0.2c0.1,0,0.1-0.1,0.2-0.2c0.5-0.4,0.8-0.9,0.7-1.5c0.1-1.8,0.4-3.5,0.7-5.3
	c1.3-5.9,5.2-10.8,10.7-13.4c1.8-0.9,3.8-1.5,5.8-1.8l2.6-0.3c0.4,0,0.8,0,1.2-0.1c0.8-0.1,1.4-0.7,1.5-1.5c0.1-0.8-0.4-1.5-1.2-1.7
	l-1.5-0.4C101.7,316.5,101,316.5,100.4,316.9z"/>
<path class="st2" d="M100.8,306.1c-1.2,0.1-2.4,0.3-3.5,0.4c-7,0.9-13.5,4.1-18.5,9.1c-2.9,2.8-5.3,6.1-7.1,9.8
	c-2,3.9-3.2,8.2-3.2,12.6c0,1.3,0,2.6,0,4c0,0.9,0.6,1.2,1.3,1.6c0.7,0.3,1.2,0,1.7-0.5c0.7-0.6,1-1.5,1-2.4
	c0.1-2.3,0.5-4.6,0.9-6.9c1.5-6.7,5.3-12.6,10.6-16.8c3.7-2.8,7.9-4.9,12.3-6c0.8-0.2,1.7-0.3,2.6-0.4l2.2-0.3
	c0.8-0.1,1.5-0.1,2.3-0.2c0.8,0,1.5-0.5,1.7-1.3c0.2-0.8-0.1-1.6-0.8-1.9c-0.6-0.3-1.2-0.5-1.8-0.6
	C102.1,305.7,101.3,305.7,100.8,306.1z"/>
<path class="st2" d="M138.9,402.6c1-0.3,2.1-0.5,3-0.9c3.2-1.2,5.9-3.5,7.4-6.5c1.1-2.2,1.8-4.6,2.1-7.1c0.1-0.9,0.4-1.8-0.3-2.7
	c-3,3.5-4.1,3.9-8.6,3.8c-0.2,0-0.5,0-0.7,0c-7.4-0.1-14.9-0.2-22.3-0.3c-1.9,0-3.9,0-5.9,0c0,0.5-0.1,0.8-0.1,1.1
	c0,2.2,0.1,4.4,0.1,6.6c0,1.9,0.9,3.3,2.1,4.6c1.1,1.1,2.5,1.6,4,1.4c0.5,0.2,1.1,0.3,1.7,0.3c5.3,0,10.6,0,15.9,0
	C137.9,402.9,138.4,402.8,138.9,402.6z"/>
<path class="st2" d="M333.9,401.9c-1.7,0-3.4-0.1-5.2,0c-0.6,0-1.1,0.1-1.7,0.3c-2.7,0.6-5.2,1.6-7.2,3.5c-3.3,3.1-5,6.9-4.6,11.4
	c0,0.4,0.1,0.7,0.3,1.4c2.4-2.6,5.3-3.2,8.3-3.4c3-0.2,6,0,9,0h3.2c0.4,0.1,0.9,0.2,1.4,0.3c4.9,0,9.7,0,14.6,0
	c0.5,0,0.9-0.1,1.3-0.3c0.1-0.2,0.2-0.3,0.2-0.5c-0.1-2.5,0-5-0.3-7.5c-0.3-2.2-1.8-4.7-4.7-4.8c-1.3,0-2.6-0.3-3.9-0.4h-0.4h-0.7
	c-0.4-0.1-0.8-0.2-1.2-0.3c-2,0-4,0-6,0L333.9,401.9z"/>
<path class="st2" d="M189.3,401.2c0.3,0.4,0.5,0.9,0.9,1.3c1.8,2.4,3.1,4.9,3,8.1c-0.2,4.3-0.1,8.6-0.2,12.9
	c-0.1,4.2-0.3,8.4-0.4,12.6c0,1.1,0,2.1,0,3.3c3.2,0.4,6.4,0.3,9.2-1.2c2.4-1.3,4.2-3.1,4.3-6.1c0.1-6,0.3-12,0.4-18
	c0-1.6-0.4-3.2-1.1-4.6c-2.3-4.6-6.6-7.7-11.7-8.4c-1.1-0.1-2.2-0.2-3.2-0.3C190,400.8,189.7,401.1,189.3,401.2z"/>
<path class="st2" d="M293.2,438.9c1,0.7,2.2,0.3,3.3,0.3c1-0.1,1.9-0.1,2.9,0c3.3,0.5,6-2.5,6.5-5c0.4-1.8,0.6-3.5,0.6-5.3
	c0.1-5,0-9.9,0-14.9c0-0.5,0-1.1-0.1-1.6c-1.2-6.2-6.4-10.9-12.8-11.4c-0.7-0.4-1.5-0.4-2.1,0l-2.1,0.4c0.2,0.3,0.2,0.4,0.3,0.5
	c2.1,1.4,3.4,3.8,3.3,6.3C292.9,418.5,293.1,428.7,293.2,438.9z"/>
<path class="st2" d="M98.2,396.1c0,1.4-0.1,2.7-0.1,4.1c-0.1,7.9-0.1,15.8-0.1,23.7c0,1.2,0.1,2.3,0.3,3.5c0.4,2.2,1.4,4.2,2.8,6
	c1.8,2.6,4.1,4.6,7.3,5.3c0.8,0.2,1.8,0.1,2.5,0.4c1.5,0.7,2.7-0.3,4.4-0.1c-0.7-0.7-1.1-1.2-1.5-1.6c-1.2-1.3-1.9-2.9-2.1-4.6
	c-0.2-2.2-0.3-4.4-0.3-6.6c0-6.4,0-12.8,0-19.2c0-0.9,0-1.8,0-2.7c0.1-0.4-0.2-0.8-0.6-0.8c0,0-0.1,0-0.1,0l-1.9-0.3
	c-0.4,0-0.7-0.1-1-0.1c-4-1.1-6.8-3.6-9-7l-0.4-0.6L98.2,396.1z"/>
<path class="st2" d="M347.2,425.3h-8.7h-22.9c0,3.2,0,6.1,0,9.1c0.1,0.2,0.1,0.4,0.3,0.6c1.1,2.6,3.2,3.8,6,3.8l19.7,0
	c0.4,0,0.7,0,1.1-0.1c2.3-0.7,4.4-1.7,6.3-3.2c3.9-3.3,5.2-7.6,5-12.4c-0.1-0.5-0.3-0.9-0.6-1.3C351.4,423.6,349.6,425,347.2,425.3z
	"/>
<path class="st2" d="M268.7,386.1c0.4,0.1,0.8,0.2,1.2,0.3c3.6,0,7.2,0,10.8,0c0.5,0,0.9-0.1,1.4-0.3c3.2-0.5,5.6-2.3,7.6-4.7
	c1.5-1.7,2.3-3.8,2.4-6c0.1-8,0.1-15.9,0.1-23.9c0-1.5-0.6-3-1.7-4c-1.1-1.2-2.6-1.6-4.1-2.2l-0.4,0.1c0,0.5-0.1,1.1-0.1,1.6
	c-0.1,8.7-0.1,17.4-0.2,26.1c0,2.8-0.9,5.3-4,6.4l-1.5,0.2h-1.1c-0.3-0.1-0.7-0.2-1-0.3c-2.9,0-5.9,0-8.8,0
	c-1.6-0.1-2.5-1.2-3.3-2.4s-0.8-2.7-0.8-4.2c0-6.6,0-13.2,0-19.7c0-0.6-0.1-1.1-0.1-1.7c-3.6,0.3-6.1,2.8-6.1,6.2
	c-0.1,6.1,0,12.2,0,18.3c0,0.9,0.1,1.9,0.5,2.8C261.2,382.9,264.1,385.6,268.7,386.1z"/>
<path class="st2" d="M196.4,379.6c-2.1-0.5-3.1-1.9-3.6-3.8c-0.2-0.9-0.3-1.9-0.3-2.9c0-5.4,0-10.8-0.1-16.2c0-1.7,0-3.5-0.1-5.2
	l-0.4,0c-3.1,0.5-5.9,2.9-5.8,6.8c0.1,5.8,0,11.6,0,17.4c-0.1,0.9,0,1.9,0.3,2.8c1.8,4.2,4.6,7.2,9.5,7.7c0.4,0.1,0.8,0.2,1.2,0.3
	c3.6,0,7.2,0,10.8,0c0.5,0,0.9-0.2,1.4-0.3c1.9-0.3,3.7-1.1,5.2-2.3c2.8-2.2,4.8-5,4.8-8.6c0.2-8,0.1-15.9,0.1-23.9
	c0-1.4-0.6-2.7-1.6-3.7c-1.1-1.2-2.7-1.8-4.2-2.3l-0.4,0.1c-0.1,3.8-0.2,7.6-0.2,11.5c-0.1,5.5,0,11-0.1,16.5c0,2.8-1,5.2-3.9,6.3
	H196.4z"/>
<path class="st2" d="M114.8,402.5c-0.4-0.5-0.8-1.1-1.2-1.6c-1.7-2-2.6-4.7-2.3-7.3c0.1-1.1,0.2-2.2,0.2-3.2
	c0.2-12.8,0.3-25.6,0.5-38.4c0-0.6,0-1.3,0-1.8c-0.2-0.1-0.3-0.3-0.5-0.4c-4.5-1.8-8.5-0.9-12.3,1.8c-1,0.6-1.7,1.8-1.6,3
	c0.2,11.8,0.3,23.6,0.5,35.4c0,1.6,0.3,3.2,1.1,4.6c2.5,4.6,6.2,7.3,11.4,7.9C111.9,403.1,113.4,403.1,114.8,402.5z"/>
<path class="st2" d="M274.8,439.3c1.4,0.6,2.8,0.3,4.1,0.2v-0.4l-0.6-0.2c-2.7-1.4-3.9-3.7-3.9-6.7c-0.1-5.6-0.2-11.2-0.3-16.8
	c0-0.2,0.1-0.4,0.2-0.6l0.5-0.2l4.7-0.1c3.2,0,6.4,0,9.7,0c0.4-0.1,0.8-0.2,1.1-0.3c-0.1-2.7-0.1-5.4-0.4-8
	c-0.2-2.4-2.1-4.4-4.6-4.6c-1.9-0.2-3.8-0.3-5.7-0.3c-1.8-0.1-3.6,0-5.3,0v-10.3l-1.3-0.2c-2-0.5-4.1-0.5-6.1,0
	c-1.5,0.2-2.9,0.5-4.1,1.5c-1.4,1.1-2.2,2.9-2,4.7c0,9.5,0,19,0,28.6c0,1.7,0,3.4,0.7,5c0.8,1.8,1.6,3.6,3.2,4.8
	C267.7,437.6,271,439.3,274.8,439.3z"/>
<path class="st2" d="M160.8,379.2c0,0.3,0,0.6,0,0.9c0.1,15.7,0.2,31.4,0.3,47c-0.1,0.9,0,1.8,0.2,2.7c1.1,3.1,3.2,5.7,6,7.5
	c1.9,1.3,4.1,2,6.4,2c0.9,0.5,2,0.5,2.9,0l1.8-0.4c-0.4-0.3-0.6-0.5-0.9-0.6c-2.3-1.4-3.7-3.5-3.8-6.2c-0.1-2,0-4,0-6.1
	c0-3.8-0.1-7.6-0.2-11.4c4.6,0,9.2,0,13.8,0c0.6-0.1,1.3-0.2,1.9-0.3c0.7-1.5,0.7-3.1,0.7-4.7c0.1-3.9-2.4-7.5-6.1-8.7l-2.6,0.3h-5
	l-2-0.4c0-0.6-0.1-1.2-0.1-1.8c0-12.7,0-25.4,0-38.1v-24.6c0-0.6-0.1-1.3-0.1-1.9c-2.8,0-5.4-0.1-7.9,0c-3.4,0.3-5,1.9-5.7,5.4
	c0,0.1-0.2,0.2-0.2,0.3v0.6c0.1,0.6,0.2,1.1,0.3,1.7c0.1,3.8,0.1,7.6,0.1,11.5c0.1,7.9,0.1,15.7,0.2,23.6
	C160.4,377.9,160.4,378.7,160.8,379.2z"/>
<path class="st2" d="M234.7,401.7c0.3,0.2,0.5,0.4,0.7,0.6c1.7,1.4,2.7,3.4,2.8,5.5c0.2,3.8,0.2,7.7,0.2,11.5
	c0,4.4-0.1,8.7-0.2,13.1c-0.1,2-0.3,4-0.4,6c0,0.7,0.2,1.1,1,1.1c2.1,0,4.2,0.1,6.3,0c3.3-0.1,5.8-2.3,6.3-4.9c0.4-2,0.6-4,0.8-6
	c0.1-2,0-4,0.1-5.9c0.4-3.2,0.2-6.5-0.5-9.6c-0.7-3-2.2-5.7-4.4-7.8c-2.6-2.4-6-3.8-9.5-4C236.9,401.1,235.8,400.9,234.7,401.7z"/>
<path class="st2" d="M232.2,438.8c-0.3-0.3-0.6-0.6-1-1c-1.7-1.4-2.5-3.5-2.4-5.7c0.1-5.3,0.1-10.7,0.1-16c0-4.6,0.1-9.1,0.2-13.7
	c0-1.5-0.1-1.6-1.6-1.7c-2.7-0.1-5.4,0.2-8,0.9c-2.4,0.6-4.2,2.8-4.3,5.3c0,3.2-0.1,6.5-0.1,9.7c0.1,4,0.2,7.9,0.4,11.9
	c0.1,0.8,0.3,1.6,0.7,2.3c1.3,2.8,3.4,4.8,6,6.4C225.3,439.2,228.6,439.3,232.2,438.8z"/>
<path class="st2" d="M341.4,337.5c0-1.8-1.4-3.2-3.2-3.2c-1.7,0.1-3.1,1.5-3.2,3.2c0,1.4,1.7,3.1,3.1,3.2
	C339.6,340.8,341.3,339.1,341.4,337.5z"/>
<path class="st3" d="M347.6,365.9h-15.1v-14.2c0.2-0.1,0.3-0.2,0.5-0.2c2.8-0.1,5.6-0.2,8.5-0.2c1.1,0,2.1,0.2,3.1,0.6
	c1.8,0.8,3,2.6,3,4.6C347.7,359.5,347.6,362.6,347.6,365.9z"/>
<path class="st3" d="M315.9,351.1v14.6c-1.3,0.4-9.7,0.5-12.3,0.1c0-0.4-0.1-0.9-0.1-1.3c0-2.6,0-5.2,0-7.7c0-3.6,2-5.6,5.5-5.6
	C311.2,351.1,313.4,351.1,315.9,351.1z"/>
<path class="st3" d="M242.5,350.7v15.2h-12.4c-0.1-0.4-0.1-0.9-0.2-1.3c0-2.5,0-5,0-7.6c0-3.6,2.4-6.1,6-6.3
	C238.1,350.6,240.2,350.7,242.5,350.7z"/>
<path class="st3" d="M124.8,343.6c-1.5,0-3,0-4.5,0c-0.9,0-1.6-0.7-1.8-1.5c-0.2-0.7,0.1-1.5,0.7-1.9c0.4-0.3,0.8-0.4,1.3-0.5
	c2.8,0,5.6-0.1,8.5,0c1.4,0,2.1,0.8,2.1,2c0,1.2-0.7,1.9-2.1,1.9S126.2,343.6,124.8,343.6L124.8,343.6z"/>
</svg>
