<svg id="Layer_1" data-name="Layer 1" xmlns="http://www.w3.org/2000/svg" viewBox="0 0 285.54 133.85"><title>phone one white sheer</title><path d="M191.66,364.1c-.2-.1-.3-.2-.5-.2h-9.5c-.2,0-.3.2-.5.2h-2.1l-3.6.3c-1.1.2-2.3.3-3.4.5-1.6.4-3.2.7-4.4,1.8-3.7,3.3-6,7.2-5.6,12.4.1.6.1,1.3.2,2.2a13.76,13.76,0,0,1,9.7-3.6c8.9.1,17.9,0,26.8,0h2c1-4.1,1.1-8-1.5-11.6l.25-.5h-1A20.28,20.28,0,0,0,191.66,364.1Zm1.6,9.7h-8.7a1.92,1.92,0,0,1-1.8-1.5,1.76,1.76,0,0,1,.7-1.9,3,3,0,0,1,1.3-.5c2.8,0,5.6-.1,8.5,0a1.87,1.87,0,0,1,2.1,2C195.36,373.1,194.66,373.8,193.26,373.8Z" transform="translate(-132.76 -336.02)" fill="#fff"/><path d="M204,364.8c-1.6-.5-3.2-.2-4.8-.2l-.1.4.5.3v.2h.2l.2.1.3.3a7.83,7.83,0,0,1,2.1,5.9c0,2.5.1,4.9.1,7.4,0,12,0,24.1.1,36.1,0,.6.1,1.3.1,2h1.6c1.9-.1,3.7-.1,5.6-.2a6.1,6.1,0,0,0,6-6.4l.3-22.8c0-3.2.3-6.5,0-9.7C215.66,372.1,211.46,365.8,204,364.8Z" transform="translate(-132.76 -336.02)" fill="#fff"/><path d="M199.56,365.6v-.1l-.05.1Z" transform="translate(-132.76 -336.02)" fill="#fff"/><path d="M303.56,416.2a12.25,12.25,0,0,0,4.2-1.4c3.4-2.1,5.6-4.9,5.6-9.1V374.4a3.58,3.58,0,0,0-1.1-.4h-10.5a3.81,3.81,0,0,0-1,.3c-3.2.4-6.2,1.4-8.4,4-1.7,2.1-3.1,4.3-3.1,7.1.1,5.2.1,10.3.1,15.5a1.14,1.14,0,0,0,.3.8,5.82,5.82,0,0,0,1.9.3h14l2.1.3c0,1.1,0,2.3.1,3.4a3.1,3.1,0,0,1-1,2.4,8.66,8.66,0,0,1-6.2,2.9c-2.2-.1-4.3,0-6.4,0h-3.9c0,.3-.1.5,0,.6a8.93,8.93,0,0,0,6,4.5l.8.1a1.69,1.69,0,0,0,1,.3C299.86,416.4,301.76,416.9,303.56,416.2Zm3.2-20.1h-12.4c-.1-.4-.1-.9-.2-1.3v-7.6a6,6,0,0,1,6-6.3c2.2-.1,4.3,0,6.6,0Z" transform="translate(-132.76 -336.02)" fill="#fff"/><path d="M386.66,406.1c.2-1.3.3-2.6.4-3.9h25.2l1-.3c1.1,0,2.2,0,3.2-.1,1.7,0,1.7-.1,1.8-1.7,0-4.4.1-8.7,0-13.1a12.45,12.45,0,0,0-4.3-9.4,15.41,15.41,0,0,0-7.4-3.2c-.3-.1-.6-.2-1-.3h-8.4l-3.9-.1c-.7-.4-1.5-.6-2.1.1v20.8h-4c0-.6-.1-1.3-.1-2,0-6.2,0-12.3.1-18.5a5.73,5.73,0,0,0-1.4-.4c-3.6,0-7.3,0-10.9.1a7,7,0,0,0-1.4.3c-4.8.6-8.2,3.3-10.4,7.6a5.79,5.79,0,0,0-.7,2.1,54.41,54.41,0,0,0-.3,5.7c-.1,4,0,7.9,0,11.9a.66.66,0,0,0,.1.6h16.6l2.1.3V404a7.18,7.18,0,0,1-3.4,6.1c-1.6,1.2-3.4,1.1-5.2,1.2h-4l-3.5-.2c-.5-.4-1-.5-1.4,0a19.65,19.65,0,0,0,1.3,2.5,8.82,8.82,0,0,0,6.9,3.3,1.8,1.8,0,0,0,2.2,0h.7l2.9-.3C382.86,415.6,386.16,410.6,386.66,406.1Zm10.1-24.2c.2-.1.3-.2.5-.2,2.8-.1,5.6-.2,8.5-.2a8.15,8.15,0,0,1,3.1.6,5.05,5.05,0,0,1,3,4.6c.1,3,0,6.1,0,9.4h-15.1Zm-16.6,14c-1.3.4-9.7.5-12.3.1,0-.4-.1-.9-.1-1.3V387c0-3.6,2-5.6,5.5-5.6,2.2-.1,4.4-.1,6.9-.1Z" transform="translate(-132.76 -336.02)" fill="#fff"/><path d="M339.16,370.6a1,1,0,0,0,1.4,0c1.8-.8,2.7-2.1,2.3-3.5a3.13,3.13,0,0,0-3.5-2.6c-1.8.2-2.6,1.4-2.5,3.4C337,369.6,337.46,370.2,339.16,370.6Z" transform="translate(-132.76 -336.02)" fill="#fff"/><path d="M266.06,370.6a1.27,1.27,0,0,0,1.8,0c2.6-1.3,3-3.9.8-5.5a3.39,3.39,0,0,0-3.5-.2c-.8.5-1.9,2.2-1.5,3C264.16,369,264.36,370.5,266.06,370.6Z" transform="translate(-132.76 -336.02)" fill="#fff"/><path d="M167.16,360.5a4.33,4.33,0,0,0,.5-.1,2,2,0,0,0,1.6-1.7,1.83,1.83,0,0,0-1.6-1.8,8.1,8.1,0,0,0-3.1-.1,16.89,16.89,0,0,0-7.3,3.7c-3.6,3.2-4.7,7.1-4,11.7a1.3,1.3,0,0,0,1.3,1.2c1.6.2,2.4-.6,2.3-2.5a9,9,0,0,1,2-6.3,10.88,10.88,0,0,1,6.4-3.8Z" transform="translate(-132.76 -336.02)" fill="#fff"/><path d="M392.86,448.4c-2.6,0-5.2.1-7.7.3-3.2.3-4.9,1.3-5.2,3.9h26.8a17.65,17.65,0,0,0,2.3,0l3.4-.3a7.18,7.18,0,0,0,5.4-3.9h-1.8C408.36,448.4,400.56,448.3,392.86,448.4Z" transform="translate(-132.76 -336.02)" fill="#fff"/><path d="M163.86,351.2l2.6-.3a4.87,4.87,0,0,0,1.2-.1,1.7,1.7,0,0,0,1.5-1.5,1.54,1.54,0,0,0-1.2-1.7l-1.5-.4a1.37,1.37,0,0,0-1.8-.1,25.06,25.06,0,0,0-14.1,6.4,23.56,23.56,0,0,0-6.1,9.4c-1.2,2.8-1,5.8-1.3,8.7a1.46,1.46,0,0,0,1.3,1.6,1,1,0,0,0,1.3.2c.1,0,.1-.1.2-.2a1.57,1.57,0,0,0,.7-1.5,48.08,48.08,0,0,1,.7-5.3,19.35,19.35,0,0,1,10.7-13.4A19.56,19.56,0,0,1,163.86,351.2Z" transform="translate(-132.76 -336.02)" fill="#fff"/><path d="M148.26,347.2a34.37,34.37,0,0,1,12.3-6,20.24,20.24,0,0,1,2.6-.4l2.2-.3c.8-.1,1.5-.1,2.3-.2a1.71,1.71,0,0,0,1.7-1.3,1.57,1.57,0,0,0-.8-1.9,6.36,6.36,0,0,0-1.8-.6,1.16,1.16,0,0,0-1.7-.2c-1.2.1-2.4.3-3.5.4a31.91,31.91,0,0,0-18.5,9.1,34.67,34.67,0,0,0-7.1,9.8,27.71,27.71,0,0,0-3.2,12.6v4c0,.9.6,1.2,1.3,1.6a1.42,1.42,0,0,0,1.7-.5,3.1,3.1,0,0,0,1-2.4,54.31,54.31,0,0,1,.9-6.9A29.77,29.77,0,0,1,148.26,347.2Z" transform="translate(-132.76 -336.02)" fill="#fff"/><path d="M206.76,419.4h-.7l-22.3-.3h-5.9c0,.5-.1.8-.1,1.1,0,2.2.1,4.4.1,6.6a6.61,6.61,0,0,0,2.1,4.6,4.66,4.66,0,0,0,4,1.4,4.67,4.67,0,0,0,1.7.3h15.9a4.15,4.15,0,0,0,1.6-.3,26.28,26.28,0,0,0,3-.9,13.53,13.53,0,0,0,7.4-6.5,21.6,21.6,0,0,0,2.1-7.1c.1-.9.4-1.8-.3-2.7C212.36,419.1,211.26,419.5,206.76,419.4Z" transform="translate(-132.76 -336.02)" fill="#fff"/><path d="M397.06,445.3h3.2c.4.1.9.2,1.4.3h14.6a2.77,2.77,0,0,0,1.3-.3c.1-.2.2-.3.2-.5-.1-2.5,0-5-.3-7.5-.3-2.2-1.8-4.7-4.7-4.8-1.3,0-2.6-.3-3.9-.4h-1.1l-1.2-.3h-6l-2.4.3c-1.7,0-3.4-.1-5.2,0a5.08,5.08,0,0,0-1.7.3,14.76,14.76,0,0,0-7.2,3.5,13.48,13.48,0,0,0-4.6,11.4,5,5,0,0,0,.3,1.4c2.4-2.6,5.3-3.2,8.3-3.4S394.06,445.3,397.06,445.3Z" transform="translate(-132.76 -336.02)" fill="#fff"/><path d="M258,431.3l-3.2-.3c-.5,0-.8.3-1.2.4a10.14,10.14,0,0,0,.9,1.3c1.8,2.4,3.1,4.9,3,8.1-.2,4.3-.1,8.6-.2,12.9s-.3,8.4-.4,12.6v3.3c3.2.4,6.4.3,9.2-1.2,2.4-1.3,4.2-3.1,4.3-6.1.1-6,.3-12,.4-18a10.39,10.39,0,0,0-1.1-4.6A15.3,15.3,0,0,0,258,431.3Z" transform="translate(-132.76 -336.02)" fill="#fff"/><path d="M370.66,442.6a14.14,14.14,0,0,0-12.8-11.4,2,2,0,0,0-2.1,0l-2.1.4c.2.3.2.4.3.5a7.32,7.32,0,0,1,3.3,6.3c-.1,10.3.1,20.5.2,30.7,1,.7,2.2.3,3.3.3a14.05,14.05,0,0,1,2.9,0c3.3.5,6-2.5,6.5-5a23.93,23.93,0,0,0,.6-5.3c.1-5,0-9.9,0-14.9A8.6,8.6,0,0,0,370.66,442.6Z" transform="translate(-132.76 -336.02)" fill="#fff"/><path d="M176,463q-.3-3.3-.3-6.6V434.5a.64.64,0,0,0-.6-.8H175l-1.9-.3c-.4,0-.7-.1-1-.1a15.38,15.38,0,0,1-9-7l-.4-.6-.2.6c0,1.4-.1,2.7-.1,4.1-.1,7.9-.1,15.8-.1,23.7a20.68,20.68,0,0,0,.3,3.5,13.79,13.79,0,0,0,2.8,6,11.94,11.94,0,0,0,7.3,5.3,18.66,18.66,0,0,1,2.5.4c1.5.7,2.7-.3,4.4-.1-.7-.7-1.1-1.2-1.5-1.6A8.12,8.12,0,0,1,176,463Z" transform="translate(-132.76 -336.02)" fill="#fff"/><path d="M417.66,452c-2,1.8-3.8,3.2-6.2,3.5h-31.6v9.1c.1.2.1.4.3.6a6,6,0,0,0,6,3.8h19.7a4.1,4.1,0,0,0,1.1-.1,18.78,18.78,0,0,0,6.3-3.2c3.9-3.3,5.2-7.6,5-12.4A3.1,3.1,0,0,0,417.66,452Z" transform="translate(-132.76 -336.02)" fill="#fff"/><path d="M333,416.3l1.2.3H345a3.53,3.53,0,0,0,1.4-.3,12.27,12.27,0,0,0,7.6-4.7,9.65,9.65,0,0,0,2.4-6c.1-8,.1-15.9.1-23.9a5.44,5.44,0,0,0-1.7-4c-1.1-1.2-2.6-1.6-4.1-2.2l-.4.1c0,.5-.1,1.1-.1,1.6-.1,8.7-.1,17.4-.2,26.1,0,2.8-.9,5.3-4,6.4l-1.5.2h-1.1l-1-.3h-8.8c-1.6-.1-2.5-1.2-3.3-2.4a7.39,7.39,0,0,1-.8-4.2V383.3c0-.6-.1-1.1-.1-1.7-3.6.3-6.1,2.8-6.1,6.2-.1,6.1,0,12.2,0,18.3a6.92,6.92,0,0,0,.5,2.8C325.46,413.1,328.36,415.8,333,416.3Z" transform="translate(-132.76 -336.02)" fill="#fff"/><path d="M283.56,405.5c.2-8,.1-15.9.1-23.9a5.23,5.23,0,0,0-1.6-3.7,9.63,9.63,0,0,0-4.2-2.3l-.4.1c-.1,3.8-.2,7.6-.2,11.5-.1,5.5,0,11-.1,16.5,0,2.8-1,5.2-3.9,6.3h-12.6v-.2a4.7,4.7,0,0,1-3.6-3.8,13.58,13.58,0,0,1-.3-2.9c0-5.4,0-10.8-.1-16.2,0-1.7,0-3.5-.1-5.2h-.4a6.6,6.6,0,0,0-5.8,6.8c.1,5.8,0,11.6,0,17.4a6.72,6.72,0,0,0,.3,2.8c1.8,4.2,4.6,7.2,9.5,7.7l1.2.3h10.8a7,7,0,0,0,1.4-.3,11.13,11.13,0,0,0,5.2-2.3C281.56,411.9,283.56,409.1,283.56,405.5Z" transform="translate(-132.76 -336.02)" fill="#fff"/><path d="M163.46,424.8a14.19,14.19,0,0,0,11.4,7.9,5.12,5.12,0,0,0,4.2,0c-.4-.5-.8-1.1-1.2-1.6a9.74,9.74,0,0,1-2.3-7.3c.1-1.1.2-2.2.2-3.2.2-12.8.3-25.6.5-38.4v-1.8c-.2-.1-.3-.3-.5-.4-4.5-1.8-8.5-.9-12.3,1.8a3.31,3.31,0,0,0-1.6,3c.2,11.8.3,23.6.5,35.4A9.2,9.2,0,0,0,163.46,424.8Z" transform="translate(-132.76 -336.02)" fill="#fff"/><path d="M349.56,431.8a54.41,54.41,0,0,0-5.7-.3c-1.8-.1-3.6,0-5.3,0V421.2l-1.3-.2a12.59,12.59,0,0,0-6.1,0,7.6,7.6,0,0,0-4.1,1.5,5.31,5.31,0,0,0-2,4.7v28.6a12.15,12.15,0,0,0,.7,5c.8,1.8,1.6,3.6,3.2,4.8,3,2.2,6.3,3.9,10.1,3.9a8.22,8.22,0,0,0,4.1.2v-.4l-.6-.2a7,7,0,0,1-3.9-6.7l-.3-16.8a1.42,1.42,0,0,1,.2-.6l.5-.2,4.7-.1h9.7c.4-.1.8-.2,1.1-.3-.1-2.7-.1-5.4-.4-8A5,5,0,0,0,349.56,431.8Z" transform="translate(-132.76 -336.02)" fill="#fff"/><path d="M248.06,431.1l-2.6.3h-5l-2-.4c0-.6-.1-1.2-.1-1.8V366.5c0-.6-.1-1.3-.1-1.9-2.8,0-5.4-.1-7.9,0-3.4.3-5,1.9-5.7,5.4,0,.1-.2.2-.2.3v.6c.1.6.2,1.1.3,1.7.1,3.8.1,7.6.1,11.5.1,7.9.1,15.7.2,23.6a1.35,1.35,0,0,0,0,1.7v.9c.1,15.7.2,31.4.3,47a8.22,8.22,0,0,0,.2,2.7,14.77,14.77,0,0,0,6,7.5,11.27,11.27,0,0,0,6.4,2,3,3,0,0,0,2.9,0l1.8-.4a3.47,3.47,0,0,0-.9-.6,7.38,7.38,0,0,1-3.8-6.2c-.1-2,0-4,0-6.1,0-3.8-.1-7.6-.2-11.4h13.8l1.9-.3a10.78,10.78,0,0,0,.7-4.7A9,9,0,0,0,248.06,431.1Z" transform="translate(-132.76 -336.02)" fill="#fff"/><path d="M311.66,435.5a15.35,15.35,0,0,0-9.5-4,3.71,3.71,0,0,0-3.2.4,4.35,4.35,0,0,1,.7.6,7.61,7.61,0,0,1,2.8,5.5c.2,3.8.2,7.7.2,11.5,0,4.4-.1,8.7-.2,13.1-.1,2-.3,4-.4,6,0,.7.2,1.1,1,1.1,2.1,0,4.2.1,6.3,0a6.42,6.42,0,0,0,6.3-4.9c.4-2,.6-4,.8-6s0-4,.1-5.9a28.12,28.12,0,0,0-.5-9.6A15.62,15.62,0,0,0,311.66,435.5Z" transform="translate(-132.76 -336.02)" fill="#fff"/><path d="M293.06,462.3c.1-5.3.1-10.7.1-16,0-4.6.1-9.1.2-13.7,0-1.5-.1-1.6-1.6-1.7a27,27,0,0,0-8,.9,5.76,5.76,0,0,0-4.3,5.3c0,3.2-.1,6.5-.1,9.7.1,4,.2,7.9.4,11.9a6.15,6.15,0,0,0,.7,2.3,14.83,14.83,0,0,0,6,6.4c3.1,2,6.4,2.1,10,1.6l-1-1A6.84,6.84,0,0,1,293.06,462.3Z" transform="translate(-132.76 -336.02)" fill="#fff"/><path d="M402.36,370.9c1.5.1,3.2-1.6,3.3-3.2a3.16,3.16,0,0,0-3.2-3.2,3.44,3.44,0,0,0-3.2,3.2A3.82,3.82,0,0,0,402.36,370.9Z" transform="translate(-132.76 -336.02)" fill="#fff"/></svg>