<svg id="Layer_1" data-name="Layer 1" xmlns="http://www.w3.org/2000/svg" xmlns:xlink="http://www.w3.org/1999/xlink" viewBox="0 0 80.98 84.75"><defs><linearGradient id="linear-gradient" x1="795.74" y1="936.64" x2="874.07" y2="936.64" gradientTransform="translate(-902.73 874.07) rotate(-90)" gradientUnits="userSpaceOnUse"><stop offset="0" stop-color="#ff0844"/><stop offset="1" stop-color="#ffb199"/></linearGradient></defs><title>share-maps</title><polygon points="67.83 78.33 0 39.16 67.83 0 67.83 78.33" fill="url(#linear-gradient)"/><polygon points="0 29.36 75.66 9.09 55.39 84.75 0 29.36" fill="#ff0844" opacity="0.5"/><g opacity="0.5"><path d="M377.26,308.11l-34.14,72.42-45.64-65.77.86-.07ZM343,378.54l32.65-69.29-76.33,6.36Z" transform="translate(-296.27 -297.28)" fill="#ff0844"/></g><path d="M342.14,355.91h-.74a1.67,1.67,0,0,1-.85-1.18,16,16,0,0,0-2.7-5.11c-.43-.54-.84-1.11-1.25-1.66l6.6-7.24a4.79,4.79,0,0,0,1-1.26,7.38,7.38,0,0,0,1.63-1.81c.19,0,.28-.14.38-.25l5.69-6.26a7.39,7.39,0,0,1,.58,1.16c.35.73.4,1.54.72,2.27v3.18c-.16.05-.12.18-.14.28a11.27,11.27,0,0,1-1.3,3.7,27.22,27.22,0,0,1-3.35,4.46c-2.35,2.71-4.66,5.43-5.63,8.88A1.46,1.46,0,0,1,342.14,355.91Z" transform="translate(-296.27 -297.28)" fill="#fff"/><path d="M336.6,348a41.6,41.6,0,0,1-4.88-6.17c-.13-.23-.24-.47-.36-.71l5.83-6.42c.11-.13.2-.29.41-.31a5.36,5.36,0,0,1-.14.54,4.11,4.11,0,0,0,3.59,5.17,5.52,5.52,0,0,0,3.18-.6,4.79,4.79,0,0,1-1,1.26Z" transform="translate(-296.27 -297.28)" fill="#fff"/><path d="M345.13,325.9a10.92,10.92,0,0,1,6.8,5.24l-5.69,6.26c-.1.11-.19.25-.38.25-.07-.18.06-.33.1-.49a4,4,0,0,0-2.78-5,4.93,4.93,0,0,0-4,.46c.15-.6.69-1,1.08-1.4C341.88,329.46,343.51,327.68,345.13,325.9Z" transform="translate(-296.27 -297.28)" fill="#fff"/><path d="M338.32,333.37l-.55.74c-.12.05-.19.12-.18.25h0c-.21,0-.3.18-.41.31l-5.83,6.42c-2-3.65-1.34-9.06,1.55-11.86l.57.42Z" transform="translate(-296.27 -297.28)" fill="#fff"/><path d="M338.32,333.37l-4.84-3.73-.57-.42a10,10,0,0,1,4.65-3.1,12,12,0,0,1,5.71-.62,7.35,7.35,0,0,1,1.86.4c-1.62,1.78-3.25,3.56-4.86,5.35-.39.44-.93.8-1.08,1.4Z" transform="translate(-296.27 -297.28)" fill="#fff"/><path d="M337.59,334.36c0-.13.06-.2.18-.25C337.72,334.2,337.74,334.33,337.59,334.36Z" transform="translate(-296.27 -297.28)" fill="#fabb05"/></svg>