<svg id="Layer_1" data-name="Layer 1" xmlns="http://www.w3.org/2000/svg" xmlns:xlink="http://www.w3.org/1999/xlink" viewBox="0 0 80.98 84.75"><defs><linearGradient id="linear-gradient" x1="303.92" y1="39.16" x2="304.42" y2="39.16" gradientUnits="userSpaceOnUse"><stop offset="0.01" stop-color="#feef9c"/><stop offset="1" stop-color="#ddebca"/></linearGradient></defs><title>share-snap</title><polygon points="67.83 78.33 0 39.16 67.83 0 67.83 78.33" fill="url(#linear-gradient)"/><polygon points="0 29.36 75.66 9.09 55.39 84.75 0 29.36" fill="#fee140" opacity="0.5"/><g opacity="0.5"><path d="M338.43,389.16l-34.14,72.42-45.65-65.77.87-.08Zm-34.3,70.42,32.65-69.28-76.33,6.36Z" transform="translate(-257.44 -378.32)" fill="#fee140"/></g><path d="M310.41,418.32a5.85,5.85,0,0,0,.07-.72l.07,0,3.32-1.52a1.31,1.31,0,1,0-1.09-2.38l-2.29,1.05v-4a8.06,8.06,0,0,0-8-8h-1.23a8,8,0,0,0-8,8v4l-2.3-1.05a1.3,1.3,0,0,0-1.73.64,1.32,1.32,0,0,0,.64,1.74l3.33,1.52.07,0c0,.23,0,.45.06.67h0s-1.74,6.49-7.49,7c0,0,.41,2.53,4.06,3.1s4.68.51,6.33,1.7,2.76,2.2,5.66,2.21h0c2.91,0,4-1,5.66-2.21s2.68-1.14,6.33-1.7,4.06-3.1,4.06-3.1C312.4,424.79,310.57,418.84,310.41,418.32Z" transform="translate(-257.44 -378.32)" fill="#fff"/></svg>