<svg id="Layer_1" data-name="Layer 1" xmlns="http://www.w3.org/2000/svg" xmlns:xlink="http://www.w3.org/1999/xlink" viewBox="0 0 84.75 80.98"><defs><linearGradient id="linear-gradient" x1="6.42" y1="33.92" x2="84.75" y2="33.92" gradientUnits="userSpaceOnUse"><stop offset="0" stop-color="#13547a"/><stop offset="1" stop-color="#80d0c7"/></linearGradient></defs><title>share-tiktok</title><polygon points="6.42 67.83 45.58 0 84.75 67.83 6.42 67.83" fill="url(#linear-gradient)"/><polygon points="55.39 0 75.66 75.66 0 55.39 55.39 0" fill="#13547a" opacity="0.5"/><g opacity="0.5"><path d="M329.14,460.51l-72.42-34.13,65.77-45.65.07.86Zm-70.43-34.3L328,458.87l-6.36-76.33Z" transform="translate(-255.23 -379.53)" fill="#13547a"/></g><path d="M289.09,427.72a4.63,4.63,0,0,1,2.13-3.49,5.07,5.07,0,0,1,4.07-.55v-4.27a10.16,10.16,0,0,1,1.65.1V425a5.07,5.07,0,0,0-4.07.55,4.63,4.63,0,0,0-2.14,3.49,5,5,0,0,0,.93,3.06l-.58-.33A4.6,4.6,0,0,1,289.09,427.72Zm17.18-16.2a7.38,7.38,0,0,1-1.89-3.71H306a6.82,6.82,0,0,0,2,5l0,0A9.06,9.06,0,0,1,306.27,411.52Zm7.54,3.86v5.39a20.15,20.15,0,0,1-3.48-.46,13.45,13.45,0,0,1-3.39-1.33s-.91-.58-1-.62v11.12a10.9,10.9,0,0,1-.68,3.45,10.56,10.56,0,0,1-1.91,3,10.64,10.64,0,0,1-7.81,3.41,11,11,0,0,1-5.8-1.66,11.32,11.32,0,0,1-1.66-1.34h0a11,11,0,0,0,5.81,1.67,10.59,10.59,0,0,0,7.8-3.41,10.49,10.49,0,0,0,1.91-3,10.74,10.74,0,0,0,.69-3.46V417l1,.62a13.45,13.45,0,0,0,3.39,1.33,20.15,20.15,0,0,0,3.48.46v-4.22A5.5,5.5,0,0,0,313.81,415.38Z" transform="translate(-255.23 -379.53)" fill="#ee1d52"/><path d="M314.5,413.1v4.21a20.78,20.78,0,0,1-3.48-.45,13.91,13.91,0,0,1-3.39-1.33l-1-.62V426a10.74,10.74,0,0,1-.69,3.46,10.27,10.27,0,0,1-1.91,3,10.59,10.59,0,0,1-7.8,3.41,11,11,0,0,1-5.81-1.67h0a9.71,9.71,0,0,1-.82-.88,10.32,10.32,0,0,1-1.55-2.7h0a10.18,10.18,0,0,1-.61-3.59,9.63,9.63,0,0,1,1.25-4.55,10.74,10.74,0,0,1,2.44-2.85A10.14,10.14,0,0,1,294,418a10,10,0,0,1,3.59-.72v4.27a5.07,5.07,0,0,0-4.07.55,4.46,4.46,0,0,0-.14,7.53c.2.13.39.24.58.34a4.75,4.75,0,0,0,1.06,1,4.86,4.86,0,0,0,4.81.44,4.46,4.46,0,0,0,2.48-2.61,6.07,6.07,0,0,0,.25-2.16V405.68h4.12a7.47,7.47,0,0,0,1.88,3.71,9.13,9.13,0,0,0,1.68,1.35,8.5,8.5,0,0,0,2.3,1.68A9.21,9.21,0,0,0,314.5,413.1Z" transform="translate(-255.23 -379.53)" fill="#fff"/><path d="M284.08,431.47h0l.1.28Z" transform="translate(-255.23 -379.53)" fill="#69c9d0"/><path d="M291.7,420.13a10.14,10.14,0,0,0-2.9,1.65,10.94,10.94,0,0,0-2.44,2.86,9.54,9.54,0,0,0-1.25,4.55,10.22,10.22,0,0,0,.61,3.59h0a10.81,10.81,0,0,0,1.55,2.69,11.52,11.52,0,0,0,.82.89,11,11,0,0,1-2.46-2.21,10.61,10.61,0,0,1-1.55-2.68h0a10.18,10.18,0,0,1-.61-3.59,9.54,9.54,0,0,1,1.25-4.55,10.94,10.94,0,0,1,2.44-2.86,11.17,11.17,0,0,1,4.94-2.22,10.73,10.73,0,0,1,3.2-.05v1.22A10,10,0,0,0,291.7,420.13Z" transform="translate(-255.23 -379.53)" fill="#69c9d0"/><path d="M304.38,407.81h-4.11v20.95a6.08,6.08,0,0,1-.26,2.16,4.46,4.46,0,0,1-2.48,2.61,4.82,4.82,0,0,1-4.8-.44,4.59,4.59,0,0,1-1.07-1,4.74,4.74,0,0,0,4.22.11,4.43,4.43,0,0,0,2.48-2.61,6.08,6.08,0,0,0,.26-2.16V406.49h5.68A5.07,5.07,0,0,0,304.38,407.81Zm7.79,6.25v1.17a9.19,9.19,0,0,1-1.93-.67,8.67,8.67,0,0,1-2.3-1.69,4.22,4.22,0,0,0,.66.36A7.55,7.55,0,0,0,312.17,414.06Z" transform="translate(-255.23 -379.53)" fill="#69c9d0"/></svg>